<?xml version="1.0" encoding="utf-8"?>
<!-- Generator: Adobe Illustrator 23.0.2, SVG Export Plug-In . SVG Version: 6.00 Build 0)  -->
<svg version="1.1" id="Capa_1" xmlns="http://www.w3.org/2000/svg" xmlns:xlink="http://www.w3.org/1999/xlink" x="0px" y="0px"
	 viewBox="0 0 618.3 851.6" style="enable-background:new 0 0 618.3 851.6;" xml:space="preserve">
<style type="text/css">
	.st0{fill:#CECCCA;}
	.st1{fill:#F7671E;}
	.st2{fill:#C44B16;}
	.st3{fill:#F9D1BD;}
	.st4{stroke:#000000;stroke-miterlimit:10;}
	.st5{fill:#FFFFFF;}
	.st6{fill:#280549;}
	.st7{fill:#1B0435;}
</style>
<g id="Capa_8">
	<path class="st0" d="M563.8,493c-166.4,43.3-232.7,148.9-258,240c-25.3-91.1-91.6-196.7-258-240c0,0-42.3,195.3,61.6,233.9
		c0.5,0.2,0.9,0.3,1.3,0.6c10,4.9,132.6,66.1,184.3,120.9c4.8,5,11.4,5.7,16.7,3.2c1.8-0.8,3.6-1.9,5.2-3.6
		c51-53.7,172.5-114.9,184-120.6c0.4-0.2,0.8-0.4,1.3-0.5C606.1,688.4,563.8,493,563.8,493z"/>
</g>
<g id="Color_1_">
	<path class="st1" d="M551.8,546.5c0.3-1.8,0.8-3.7,1.4-5.4c-2.7-2.5-3.9-6.5-3-10.2c0.4-1.8,1.3-3.2,2.5-4.4c0.8-3,3-5.5,6.1-6.8
		c0.3-3.8,2.7-6.8,6-8.2C560.3,409.1,609.3,3,609.3,3c-55,14-166,279-166,279c-68-65-269,0-269,0C100.3,61,9.3,2,9.3,2
		c17,16,38,501,38,501c-0.2,0.2-0.4,0.4-0.5,0.7c0,0,0,0,0,0.1v1.5c0,1,0,2,0,2.9v7.8c0,0.5,0,0.9-0.1,1.4
		C61.6,566.2,191.3,699,191.3,699c136,119,105,87,137,82c26.3-4.1,170.8-170.3,221.4-229.4C550,549.7,550.6,547.9,551.8,546.5z"/>
	<path class="st1" d="M561.3,512c1-9-0.6,29.2-20.3,46.6c-19.7,17.4-3.7-36.6-3.7-36.6L561.3,512z"/>
	<path class="st1" d="M153.3,289c0,0,192-103,333,15"/>
	<path class="st1" d="M356.3,761c0,0,222-200.1,208.5-249.5c-0.5-0.5-11.8,5.8-11.8,5.8L351.1,753.8"/>
	<g id="Capa_11">
		<path class="st2" d="M46.3,511"/>
		<path class="st2" d="M312.3,620l252.5-108.5c0,0,3.7,13.6-10.4,35.1C554.4,547,312.3,650,312.3,650L59.5,543c0,0-14.2-26-13.2-32
			S312.3,620,312.3,620"/>
	</g>
</g>
<g id="Capa_10">
	<path class="st3" d="M9.3,2c0,0,122,256,97,305s-66,25-66,25l-2-1L9.3,2z"/>
	<path class="st3" d="M610.4,0c0,0-129.9,253.7-105.1,303.1c24.8,49.5,67.3,26.2,67.3,26.2l2.1-1L610.4,0z"/>
</g>
<g id="Nariz">
	<g id="Capa_6">
		<path class="st4" d="M263,761.5c0,0,44.9-81.9,92.8-0.1C355.8,761.1,316.1,823.6,263,761.5"/>
		<g id="Capa_9">
			<path class="st5" d="M276.6,740.6c0,0,33,29.6,66.4,0c0.4,0.4-14.6-18.6-32.6-16.6S285.8,730.2,276.6,740.6z"/>
		</g>
	</g>
</g>
<g id="Lentes">
	<g id="Color">
		<polygon class="st6" points="-0.7,351 39.9,364.4 313.3,454.8 618.3,351 617.3,490.1 312.3,619 0.3,490.1 		"/>
	</g>
	<polygon id="Brillo_2_" class="st5" points="466.8,402.9 443.5,564.1 510.3,536.7 528.3,382.5 	"/>
	<path id="Sombra_2_" class="st7" d="M40.3,365.7c0,0,6,142.5,6,144.8c0,2.3,266,109.5,266,109.5V455.8L40.3,365.7z"/>
</g>
</svg>
